<svg xmlns="http://www.w3.org/2000/svg" xmlns:xlink="http://www.w3.org/1999/xlink" width="487" zoomAndPan="magnify" viewBox="0 0 365.25 367.500003" height="490" preserveAspectRatio="xMidYMid meet" version="1.0"><defs><g/><clipPath id="16ce03bdff"><path d="M 29.160156 33.417969 L 364.5 33.417969 L 364.5 366.402344 L 29.160156 366.402344 Z M 29.160156 33.417969 " clip-rule="nonzero"/></clipPath><clipPath id="a26a639cd9"><path d="M 41.136719 33.417969 L 352.277344 33.417969 C 358.890625 33.417969 364.253906 38.78125 364.253906 45.394531 L 364.253906 354.425781 C 364.253906 361.039062 358.890625 366.402344 352.277344 366.402344 L 41.136719 366.402344 C 34.519531 366.402344 29.160156 361.039062 29.160156 354.425781 L 29.160156 45.394531 C 29.160156 38.78125 34.519531 33.417969 41.136719 33.417969 Z M 41.136719 33.417969 " clip-rule="nonzero"/></clipPath><clipPath id="633d091d1e"><path d="M 0 0.128906 L 340.609375 0.128906 L 340.609375 338.097656 L 0 338.097656 Z M 0 0.128906 " clip-rule="nonzero"/></clipPath><clipPath id="a837a842e0"><path d="M 11.976562 0.128906 L 328.136719 0.128906 C 334.75 0.128906 340.113281 5.488281 340.113281 12.101562 L 340.113281 326.121094 C 340.113281 332.734375 334.75 338.097656 328.136719 338.097656 L 11.976562 338.097656 C 5.363281 338.097656 0 332.734375 0 326.121094 L 0 12.101562 C 0 5.488281 5.363281 0.128906 11.976562 0.128906 Z M 11.976562 0.128906 " clip-rule="nonzero"/></clipPath><clipPath id="07f0cd5443"><path d="M 24.542969 22.003906 L 282.765625 22.003906 L 282.765625 295.941406 L 24.542969 295.941406 Z M 24.542969 22.003906 " clip-rule="nonzero"/></clipPath><clipPath id="5950d0cfeb"><path d="M 24.542969 30.984375 L 24.542969 286.96875 C 24.542969 291.929688 28.566406 295.953125 33.527344 295.953125 L 273.570312 295.953125 C 278.53125 295.953125 282.550781 291.929688 282.550781 286.96875 L 282.550781 30.984375 C 282.550781 26.023438 278.53125 22.003906 273.570312 22.003906 L 33.527344 22.003906 C 28.566406 22.003906 24.542969 26.023438 24.542969 30.984375 Z M 24.542969 30.984375 " clip-rule="nonzero"/></clipPath></defs><g clip-path="url(#16ce03bdff)"><g clip-path="url(#a26a639cd9)"><path fill="#404040" d="M 29.160156 33.417969 L 364.742188 33.417969 L 364.742188 366.402344 L 29.160156 366.402344 Z M 29.160156 33.417969 " fill-opacity="1" fill-rule="nonzero"/></g></g><g clip-path="url(#633d091d1e)"><g clip-path="url(#a837a842e0)"><path fill="#262626" d="M 0 0.128906 L 340.609375 0.128906 L 340.609375 338.097656 L 0 338.097656 Z M 0 0.128906 " fill-opacity="1" fill-rule="nonzero"/></g></g><g clip-path="url(#07f0cd5443)"><g clip-path="url(#5950d0cfeb)"><path fill="#ffffff" d="M 18.484375 21.855469 L 287.585938 21.855469 L 287.585938 295.792969 L 18.484375 295.792969 Z M 18.484375 21.855469 " fill-opacity="1" fill-rule="nonzero"/></g></g><path stroke-linecap="round" transform="matrix(0.748463, 0, 0, 0.748463, 51.790879, 212.946223)" fill="none" stroke-linejoin="miter" d="M 7.998343 7.999554 L 262.342468 7.999554 " stroke="#0a0a0a" stroke-width="16" stroke-opacity="1" stroke-miterlimit="4"/><g fill="#262626" fill-opacity="1"><g transform="translate(65.027912, 177.605923)"><g><path d="M 1.53125 -68.96875 L 10.921875 -68.96875 L 14.84375 -21.265625 C 14.976562 -20.179688 15.0625 -18.890625 15.09375 -17.390625 C 15.125 -15.890625 15.140625 -14.40625 15.140625 -12.9375 C 15.203125 -11.269531 15.234375 -9.546875 15.234375 -7.765625 L 16.28125 -7.765625 C 16.34375 -9.546875 16.410156 -11.269531 16.484375 -12.9375 C 16.546875 -14.40625 16.625 -15.890625 16.71875 -17.390625 C 16.8125 -18.890625 16.921875 -20.179688 17.046875 -21.265625 L 22.984375 -68.96875 L 34.671875 -68.96875 L 40.328125 -21.265625 C 40.453125 -20.179688 40.546875 -18.890625 40.609375 -17.390625 C 40.679688 -15.890625 40.78125 -14.40625 40.90625 -12.9375 C 41.03125 -11.269531 41.125 -9.546875 41.1875 -7.765625 L 42.25 -7.765625 C 42.25 -9.546875 42.28125 -11.269531 42.34375 -12.9375 C 42.40625 -14.40625 42.453125 -15.890625 42.484375 -17.390625 C 42.515625 -18.890625 42.5625 -20.179688 42.625 -21.265625 L 46.46875 -68.96875 L 55.953125 -68.96875 L 48.859375 0 L 35.25 0 L 29.890625 -47.609375 C 29.765625 -49.078125 29.648438 -50.59375 29.546875 -52.15625 C 29.453125 -53.726562 29.40625 -55.179688 29.40625 -56.515625 C 29.40625 -58.046875 29.40625 -59.546875 29.40625 -61.015625 L 28.359375 -61.015625 C 28.359375 -59.546875 28.359375 -58.046875 28.359375 -56.515625 C 28.296875 -55.179688 28.210938 -53.726562 28.109375 -52.15625 C 28.015625 -50.59375 27.875 -49.078125 27.6875 -47.609375 L 21.84375 0 L 8.4375 0 Z M 1.53125 -68.96875 "/></g></g></g><g fill="#262626" fill-opacity="1"><g transform="translate(124.802008, 177.605923)"><g><path d="M 5.265625 0 L 5.265625 -68.96875 L 19.453125 -68.96875 L 27.015625 -47.03125 C 27.265625 -46.332031 27.484375 -45.566406 27.671875 -44.734375 C 27.867188 -43.898438 28.035156 -43.132812 28.171875 -42.4375 C 28.359375 -41.601562 28.515625 -40.804688 28.640625 -40.046875 L 29.3125 -40.046875 C 29.4375 -40.804688 29.597656 -41.601562 29.796875 -42.4375 C 29.984375 -43.132812 30.171875 -43.898438 30.359375 -44.734375 C 30.554688 -45.566406 30.78125 -46.332031 31.03125 -47.03125 L 37.9375 -68.96875 L 52.3125 -68.96875 L 52.3125 0 L 41.578125 0 L 41.578125 -44.734375 C 41.578125 -46.203125 41.640625 -47.734375 41.765625 -49.328125 C 41.890625 -50.929688 42.019531 -52.398438 42.15625 -53.734375 C 42.28125 -55.335938 42.4375 -56.90625 42.625 -58.4375 L 41.765625 -58.4375 C 41.441406 -56.96875 41.09375 -55.53125 40.71875 -54.125 C 40.394531 -52.914062 40.070312 -51.65625 39.75 -50.34375 C 39.4375 -49.03125 39.117188 -47.832031 38.796875 -46.75 L 33.8125 -30.375 L 23.859375 -30.375 L 18.578125 -46.75 C 18.265625 -47.832031 17.945312 -49.03125 17.625 -50.34375 C 17.300781 -51.65625 16.984375 -52.914062 16.671875 -54.125 C 16.347656 -55.53125 16.0625 -56.96875 15.8125 -58.4375 L 14.84375 -58.4375 C 15.039062 -56.90625 15.234375 -55.335938 15.421875 -53.734375 C 15.546875 -52.398438 15.65625 -50.929688 15.75 -49.328125 C 15.851562 -47.734375 15.90625 -46.203125 15.90625 -44.734375 L 15.90625 0 Z M 5.265625 0 "/></g></g></g><g fill="#262626" fill-opacity="1"><g transform="translate(184.576103, 177.605923)"><g><path d="M 28.734375 0.953125 C 25.347656 0.953125 22.234375 0.507812 19.390625 -0.375 C 16.554688 -1.269531 14.113281 -2.5625 12.0625 -4.25 C 10.019531 -5.945312 8.40625 -7.976562 7.21875 -10.34375 C 6.039062 -12.707031 5.390625 -15.359375 5.265625 -18.296875 L 17.53125 -18.296875 C 17.65625 -15.546875 18.753906 -13.390625 20.828125 -11.828125 C 22.910156 -10.265625 25.644531 -9.484375 29.03125 -9.484375 C 32.539062 -9.484375 35.269531 -10.28125 37.21875 -11.875 C 39.164062 -13.476562 40.140625 -15.617188 40.140625 -18.296875 C 40.140625 -20.660156 39.40625 -22.703125 37.9375 -24.421875 C 36.46875 -26.148438 34.390625 -27.429688 31.703125 -28.265625 L 24.421875 -30.375 C 12.546875 -33.625 6.609375 -40.457031 6.609375 -50.875 C 6.609375 -53.738281 7.132812 -56.351562 8.1875 -58.71875 C 9.238281 -61.082031 10.722656 -63.109375 12.640625 -64.796875 C 14.554688 -66.492188 16.882812 -67.789062 19.625 -68.6875 C 22.375 -69.582031 25.476562 -70.03125 28.9375 -70.03125 C 35.445312 -70.03125 40.695312 -68.351562 44.6875 -65 C 48.675781 -61.644531 50.832031 -57.03125 51.15625 -51.15625 L 38.984375 -51.15625 C 38.859375 -53.769531 37.835938 -55.8125 35.921875 -57.28125 C 34.003906 -58.75 31.578125 -59.484375 28.640625 -59.484375 C 25.515625 -59.484375 23.054688 -58.75 21.265625 -57.28125 C 19.472656 -55.8125 18.578125 -53.863281 18.578125 -51.4375 C 18.578125 -46.84375 21.359375 -43.75 26.921875 -42.15625 L 34.578125 -40.046875 C 40.328125 -38.441406 44.703125 -35.835938 47.703125 -32.234375 C 50.703125 -28.628906 52.203125 -24.175781 52.203125 -18.875 C 52.203125 -15.875 51.644531 -13.160156 50.53125 -10.734375 C 49.414062 -8.304688 47.832031 -6.226562 45.78125 -4.5 C 43.738281 -2.78125 41.28125 -1.441406 38.40625 -0.484375 C 35.539062 0.472656 32.316406 0.953125 28.734375 0.953125 Z M 28.734375 0.953125 "/></g></g></g></svg>