<svg xmlns="http://www.w3.org/2000/svg" xmlns:xlink="http://www.w3.org/1999/xlink" width="500" zoomAndPan="magnify" viewBox="0 0 375 374.999991" height="500" preserveAspectRatio="xMidYMid meet" version="1.0"><defs><g/><clipPath id="fdcb332062"><path d="M 17.5 19.855469 L 371.554688 19.855469 L 371.554688 371.167969 L 17.5 371.167969 Z M 17.5 19.855469 " clip-rule="nonzero"/></clipPath><clipPath id="a524e3443e"><path d="M 29.5 19.855469 L 359.039062 19.855469 C 365.664062 19.855469 371.039062 25.230469 371.039062 31.855469 L 371.039062 359.167969 C 371.039062 365.792969 365.664062 371.167969 359.039062 371.167969 L 29.5 371.167969 C 22.871094 371.167969 17.5 365.792969 17.5 359.167969 L 17.5 31.855469 C 17.5 25.230469 22.871094 19.855469 29.5 19.855469 Z M 29.5 19.855469 " clip-rule="nonzero"/></clipPath><clipPath id="df9d53ed79"><path d="M 4.140625 4.730469 L 357.929688 4.730469 L 357.929688 355.78125 L 4.140625 355.78125 Z M 4.140625 4.730469 " clip-rule="nonzero"/></clipPath><clipPath id="c8236b1ff3"><path d="M 16.140625 4.730469 L 345.414062 4.730469 C 352.042969 4.730469 357.414062 10.105469 357.414062 16.730469 L 357.414062 343.78125 C 357.414062 350.40625 352.042969 355.78125 345.414062 355.78125 L 16.140625 355.78125 C 9.511719 355.78125 4.140625 350.40625 4.140625 343.78125 L 4.140625 16.730469 C 4.140625 10.105469 9.511719 4.730469 16.140625 4.730469 Z M 16.140625 4.730469 " clip-rule="nonzero"/></clipPath><clipPath id="60b8400dc5"><path d="M 26.261719 19.855469 L 276 19.855469 L 276 284.605469 L 26.261719 284.605469 Z M 26.261719 19.855469 " clip-rule="nonzero"/></clipPath><clipPath id="13313c73e0"><path d="M 26.261719 28.855469 L 26.261719 275.949219 C 26.261719 280.917969 30.292969 284.949219 35.261719 284.949219 L 266.929688 284.949219 C 271.898438 284.949219 275.929688 280.917969 275.929688 275.949219 L 275.929688 28.855469 C 275.929688 23.886719 271.898438 19.855469 266.929688 19.855469 L 35.261719 19.855469 C 30.292969 19.855469 26.261719 23.886719 26.261719 28.855469 Z M 26.261719 28.855469 " clip-rule="nonzero"/></clipPath></defs><g clip-path="url(#fdcb332062)"><g clip-path="url(#a524e3443e)"><path fill="#404040" d="M 17.5 19.855469 L 371.554688 19.855469 L 371.554688 371.167969 L 17.5 371.167969 Z M 17.5 19.855469 " fill-opacity="1" fill-rule="nonzero"/></g></g><g clip-path="url(#df9d53ed79)"><g clip-path="url(#c8236b1ff3)"><path fill="#0a0a0a" d="M 4.140625 4.730469 L 357.929688 4.730469 L 357.929688 355.78125 L 4.140625 355.78125 Z M 4.140625 4.730469 " fill-opacity="1" fill-rule="nonzero"/></g></g><g clip-path="url(#60b8400dc5)"><g clip-path="url(#13313c73e0)"><path fill="#ffffff" d="M 20.390625 19.714844 L 280.804688 19.714844 L 280.804688 284.804688 L 20.390625 284.804688 Z M 20.390625 19.714844 " fill-opacity="1" fill-rule="nonzero"/></g></g><path stroke-linecap="round" transform="matrix(0.75, 0, 0, 0.75, 54.906646, 248.62932)" fill="none" stroke-linejoin="miter" d="M 4.999472 4.999448 L 251.499488 4.999448 " stroke="#0a0a0a" stroke-width="10" stroke-opacity="1" stroke-miterlimit="4"/><g fill="#262626" fill-opacity="1"><g transform="translate(71.094931, 130.619545)"><g><path d="M 1.28125 -57.59375 L 9.125 -57.59375 L 12.40625 -17.765625 C 12.507812 -16.859375 12.570312 -15.773438 12.59375 -14.515625 C 12.625 -13.265625 12.640625 -12.023438 12.640625 -10.796875 C 12.691406 -9.410156 12.71875 -7.972656 12.71875 -6.484375 L 13.59375 -6.484375 C 13.65625 -7.972656 13.710938 -9.410156 13.765625 -10.796875 C 13.816406 -12.023438 13.878906 -13.265625 13.953125 -14.515625 C 14.035156 -15.773438 14.128906 -16.859375 14.234375 -17.765625 L 19.203125 -57.59375 L 28.953125 -57.59375 L 33.6875 -17.765625 C 33.789062 -16.859375 33.867188 -15.773438 33.921875 -14.515625 C 33.972656 -13.265625 34.050781 -12.023438 34.15625 -10.796875 C 34.257812 -9.410156 34.34375 -7.972656 34.40625 -6.484375 L 35.28125 -6.484375 C 35.28125 -7.972656 35.304688 -9.410156 35.359375 -10.796875 C 35.410156 -12.023438 35.445312 -13.265625 35.46875 -14.515625 C 35.5 -15.773438 35.539062 -16.859375 35.59375 -17.765625 L 38.796875 -57.59375 L 46.71875 -57.59375 L 40.796875 0 L 29.4375 0 L 24.953125 -39.765625 C 24.847656 -40.984375 24.753906 -42.242188 24.671875 -43.546875 C 24.597656 -44.859375 24.5625 -46.078125 24.5625 -47.203125 C 24.5625 -48.484375 24.5625 -49.734375 24.5625 -50.953125 L 23.6875 -50.953125 C 23.6875 -49.734375 23.6875 -48.484375 23.6875 -47.203125 C 23.625 -46.078125 23.550781 -44.859375 23.46875 -43.546875 C 23.394531 -42.242188 23.28125 -40.984375 23.125 -39.765625 L 18.234375 0 L 7.046875 0 Z M 1.28125 -57.59375 "/></g></g></g><g fill="#262626" fill-opacity="1"><g transform="translate(127.090296, 130.619545)"><g><path d="M 4.40625 0 L 4.40625 -57.59375 L 16.234375 -57.59375 L 22.5625 -39.28125 C 22.769531 -38.695312 22.953125 -38.054688 23.109375 -37.359375 C 23.273438 -36.660156 23.410156 -36.019531 23.515625 -35.4375 C 23.679688 -34.75 23.816406 -34.082031 23.921875 -33.4375 L 24.484375 -33.4375 C 24.585938 -34.082031 24.71875 -34.75 24.875 -35.4375 C 25.039062 -36.019531 25.203125 -36.660156 25.359375 -37.359375 C 25.515625 -38.054688 25.703125 -38.695312 25.921875 -39.28125 L 31.6875 -57.59375 L 43.6875 -57.59375 L 43.6875 0 L 34.71875 0 L 34.71875 -37.359375 C 34.71875 -38.585938 34.769531 -39.867188 34.875 -41.203125 C 34.988281 -42.535156 35.097656 -43.757812 35.203125 -44.875 C 35.304688 -46.207031 35.4375 -47.515625 35.59375 -48.796875 L 34.875 -48.796875 C 34.613281 -47.566406 34.320312 -46.367188 34 -45.203125 C 33.726562 -44.191406 33.457031 -43.140625 33.1875 -42.046875 C 32.925781 -40.953125 32.664062 -39.953125 32.40625 -39.046875 L 28.234375 -25.359375 L 19.921875 -25.359375 L 15.515625 -39.046875 C 15.253906 -39.953125 14.988281 -40.953125 14.71875 -42.046875 C 14.445312 -43.140625 14.179688 -44.191406 13.921875 -45.203125 C 13.648438 -46.367188 13.410156 -47.566406 13.203125 -48.796875 L 12.40625 -48.796875 C 12.5625 -47.515625 12.71875 -46.207031 12.875 -44.875 C 12.988281 -43.757812 13.082031 -42.535156 13.15625 -41.203125 C 13.238281 -39.867188 13.28125 -38.585938 13.28125 -37.359375 L 13.28125 0 Z M 4.40625 0 "/></g></g></g><g fill="#262626" fill-opacity="1"><g transform="translate(183.085662, 130.619545)"><g><path d="M 24 0.796875 C 21.175781 0.796875 18.578125 0.425781 16.203125 -0.3125 C 13.828125 -1.0625 11.785156 -2.144531 10.078125 -3.5625 C 8.367188 -4.976562 7.019531 -6.671875 6.03125 -8.640625 C 5.050781 -10.609375 4.507812 -12.820312 4.40625 -15.28125 L 14.640625 -15.28125 C 14.742188 -12.988281 15.660156 -11.1875 17.390625 -9.875 C 19.128906 -8.570312 21.410156 -7.921875 24.234375 -7.921875 C 27.171875 -7.921875 29.453125 -8.585938 31.078125 -9.921875 C 32.703125 -11.253906 33.515625 -13.039062 33.515625 -15.28125 C 33.515625 -17.25 32.898438 -18.953125 31.671875 -20.390625 C 30.453125 -21.835938 28.722656 -22.90625 26.484375 -23.59375 L 20.40625 -25.359375 C 10.476562 -28.078125 5.515625 -33.785156 5.515625 -42.484375 C 5.515625 -44.878906 5.953125 -47.0625 6.828125 -49.03125 C 7.710938 -51.007812 8.953125 -52.703125 10.546875 -54.109375 C 12.148438 -55.523438 14.097656 -56.609375 16.390625 -57.359375 C 18.691406 -58.109375 21.28125 -58.484375 24.15625 -58.484375 C 29.59375 -58.484375 33.976562 -57.082031 37.3125 -54.28125 C 40.644531 -51.476562 42.445312 -47.625 42.71875 -42.71875 L 32.5625 -42.71875 C 32.457031 -44.90625 31.601562 -46.613281 30 -47.84375 C 28.394531 -49.070312 26.367188 -49.6875 23.921875 -49.6875 C 21.304688 -49.6875 19.25 -49.070312 17.75 -47.84375 C 16.257812 -46.613281 15.515625 -44.984375 15.515625 -42.953125 C 15.515625 -39.117188 17.835938 -36.535156 22.484375 -35.203125 L 28.875 -33.4375 C 33.675781 -32.101562 37.328125 -29.929688 39.828125 -26.921875 C 42.335938 -23.910156 43.59375 -20.191406 43.59375 -15.765625 C 43.59375 -13.253906 43.125 -10.984375 42.1875 -8.953125 C 41.257812 -6.929688 39.941406 -5.195312 38.234375 -3.75 C 36.535156 -2.3125 34.484375 -1.191406 32.078125 -0.390625 C 29.679688 0.398438 26.988281 0.796875 24 0.796875 Z M 24 0.796875 "/></g></g></g></svg>